<?xml version="1.0" encoding="utf-8" standalone="no"?>
<!DOCTYPE svg PUBLIC "-//W3C//DTD SVG 1.1//EN"
  "http://www.w3.org/Graphics/SVG/1.1/DTD/svg11.dtd">
<svg xmlns:xlink="http://www.w3.org/1999/xlink" width="648pt" height="360pt" viewBox="0 0 648 360" xmlns="http://www.w3.org/2000/svg" version="1.1">
 <metadata>
  <rdf:RDF xmlns:dc="http://purl.org/dc/elements/1.1/" xmlns:cc="http://creativecommons.org/ns#" xmlns:rdf="http://www.w3.org/1999/02/22-rdf-syntax-ns#">
   <cc:Work>
    <dc:type rdf:resource="http://purl.org/dc/dcmitype/StillImage"/>
    <dc:date>2025-01-04T14:58:13.643480</dc:date>
    <dc:format>image/svg+xml</dc:format>
    <dc:creator>
     <cc:Agent>
      <dc:title>Matplotlib v3.9.1, https://matplotlib.org/</dc:title>
     </cc:Agent>
    </dc:creator>
   </cc:Work>
  </rdf:RDF>
 </metadata>
 <defs>
  <style type="text/css">*{stroke-linejoin: round; stroke-linecap: butt}</style>
 </defs>
 <g id="figure_1">
  <g id="patch_1">
   <path d="M 0 360 
L 648 360 
L 648 0 
L 0 0 
z
" style="fill: #ffffff"/>
  </g>
  <g id="axes_1">
   <g id="patch_2">
    <path d="M 83.54 305.8 
L 632.88 305.8 
L 632.88 15.12 
L 83.54 15.12 
z
" style="fill: #ffffff"/>
   </g>
   <g id="matplotlib.axis_1">
    <g id="xtick_1">
     <g id="line2d_1">
      <defs>
       <path id="me13a33b15a" d="M 0 0 
L 0 3.5 
" style="stroke: #000000; stroke-width: 0.8"/>
      </defs>
      <g>
       <use xlink:href="#me13a33b15a" x="108.51" y="305.8" style="stroke: #000000; stroke-width: 0.8"/>
      </g>
     </g>
     <g id="text_1">
      <!-- 0 -->
      <g transform="translate(104.05625 323.437813) scale(0.14 -0.14)">
       <defs>
        <path id="DejaVuSans-30" d="M 2034 4250 
Q 1547 4250 1301 3770 
Q 1056 3291 1056 2328 
Q 1056 1369 1301 889 
Q 1547 409 2034 409 
Q 2525 409 2770 889 
Q 3016 1369 3016 2328 
Q 3016 3291 2770 3770 
Q 2525 4250 2034 4250 
z
M 2034 4750 
Q 2819 4750 3233 4129 
Q 3647 3509 3647 2328 
Q 3647 1150 3233 529 
Q 2819 -91 2034 -91 
Q 1250 -91 836 529 
Q 422 1150 422 2328 
Q 422 3509 836 4129 
Q 1250 4750 2034 4750 
z
" transform="scale(0.015625)"/>
       </defs>
       <use xlink:href="#DejaVuSans-30"/>
      </g>
     </g>
    </g>
    <g id="xtick_2">
     <g id="line2d_2">
      <g>
       <use xlink:href="#me13a33b15a" x="208.39" y="305.8" style="stroke: #000000; stroke-width: 0.8"/>
      </g>
     </g>
     <g id="text_2">
      <!-- 2 -->
      <g transform="translate(203.93625 323.437813) scale(0.14 -0.14)">
       <defs>
        <path id="DejaVuSans-32" d="M 1228 531 
L 3431 531 
L 3431 0 
L 469 0 
L 469 531 
Q 828 903 1448 1529 
Q 2069 2156 2228 2338 
Q 2531 2678 2651 2914 
Q 2772 3150 2772 3378 
Q 2772 3750 2511 3984 
Q 2250 4219 1831 4219 
Q 1534 4219 1204 4116 
Q 875 4013 500 3803 
L 500 4441 
Q 881 4594 1212 4672 
Q 1544 4750 1819 4750 
Q 2544 4750 2975 4387 
Q 3406 4025 3406 3419 
Q 3406 3131 3298 2873 
Q 3191 2616 2906 2266 
Q 2828 2175 2409 1742 
Q 1991 1309 1228 531 
z
" transform="scale(0.015625)"/>
       </defs>
       <use xlink:href="#DejaVuSans-32"/>
      </g>
     </g>
    </g>
    <g id="xtick_3">
     <g id="line2d_3">
      <g>
       <use xlink:href="#me13a33b15a" x="308.27" y="305.8" style="stroke: #000000; stroke-width: 0.8"/>
      </g>
     </g>
     <g id="text_3">
      <!-- 4 -->
      <g transform="translate(303.81625 323.437813) scale(0.14 -0.14)">
       <defs>
        <path id="DejaVuSans-34" d="M 2419 4116 
L 825 1625 
L 2419 1625 
L 2419 4116 
z
M 2253 4666 
L 3047 4666 
L 3047 1625 
L 3713 1625 
L 3713 1100 
L 3047 1100 
L 3047 0 
L 2419 0 
L 2419 1100 
L 313 1100 
L 313 1709 
L 2253 4666 
z
" transform="scale(0.015625)"/>
       </defs>
       <use xlink:href="#DejaVuSans-34"/>
      </g>
     </g>
    </g>
    <g id="xtick_4">
     <g id="line2d_4">
      <g>
       <use xlink:href="#me13a33b15a" x="408.15" y="305.8" style="stroke: #000000; stroke-width: 0.8"/>
      </g>
     </g>
     <g id="text_4">
      <!-- 6 -->
      <g transform="translate(403.69625 323.437813) scale(0.14 -0.14)">
       <defs>
        <path id="DejaVuSans-36" d="M 2113 2584 
Q 1688 2584 1439 2293 
Q 1191 2003 1191 1497 
Q 1191 994 1439 701 
Q 1688 409 2113 409 
Q 2538 409 2786 701 
Q 3034 994 3034 1497 
Q 3034 2003 2786 2293 
Q 2538 2584 2113 2584 
z
M 3366 4563 
L 3366 3988 
Q 3128 4100 2886 4159 
Q 2644 4219 2406 4219 
Q 1781 4219 1451 3797 
Q 1122 3375 1075 2522 
Q 1259 2794 1537 2939 
Q 1816 3084 2150 3084 
Q 2853 3084 3261 2657 
Q 3669 2231 3669 1497 
Q 3669 778 3244 343 
Q 2819 -91 2113 -91 
Q 1303 -91 875 529 
Q 447 1150 447 2328 
Q 447 3434 972 4092 
Q 1497 4750 2381 4750 
Q 2619 4750 2861 4703 
Q 3103 4656 3366 4563 
z
" transform="scale(0.015625)"/>
       </defs>
       <use xlink:href="#DejaVuSans-36"/>
      </g>
     </g>
    </g>
    <g id="xtick_5">
     <g id="line2d_5">
      <g>
       <use xlink:href="#me13a33b15a" x="508.03" y="305.8" style="stroke: #000000; stroke-width: 0.8"/>
      </g>
     </g>
     <g id="text_5">
      <!-- 8 -->
      <g transform="translate(503.57625 323.437813) scale(0.14 -0.14)">
       <defs>
        <path id="DejaVuSans-38" d="M 2034 2216 
Q 1584 2216 1326 1975 
Q 1069 1734 1069 1313 
Q 1069 891 1326 650 
Q 1584 409 2034 409 
Q 2484 409 2743 651 
Q 3003 894 3003 1313 
Q 3003 1734 2745 1975 
Q 2488 2216 2034 2216 
z
M 1403 2484 
Q 997 2584 770 2862 
Q 544 3141 544 3541 
Q 544 4100 942 4425 
Q 1341 4750 2034 4750 
Q 2731 4750 3128 4425 
Q 3525 4100 3525 3541 
Q 3525 3141 3298 2862 
Q 3072 2584 2669 2484 
Q 3125 2378 3379 2068 
Q 3634 1759 3634 1313 
Q 3634 634 3220 271 
Q 2806 -91 2034 -91 
Q 1263 -91 848 271 
Q 434 634 434 1313 
Q 434 1759 690 2068 
Q 947 2378 1403 2484 
z
M 1172 3481 
Q 1172 3119 1398 2916 
Q 1625 2713 2034 2713 
Q 2441 2713 2670 2916 
Q 2900 3119 2900 3481 
Q 2900 3844 2670 4047 
Q 2441 4250 2034 4250 
Q 1625 4250 1398 4047 
Q 1172 3844 1172 3481 
z
" transform="scale(0.015625)"/>
       </defs>
       <use xlink:href="#DejaVuSans-38"/>
      </g>
     </g>
    </g>
    <g id="xtick_6">
     <g id="line2d_6">
      <g>
       <use xlink:href="#me13a33b15a" x="607.91" y="305.8" style="stroke: #000000; stroke-width: 0.8"/>
      </g>
     </g>
     <g id="text_6">
      <!-- 10 -->
      <g transform="translate(599.0025 323.437813) scale(0.14 -0.14)">
       <defs>
        <path id="DejaVuSans-31" d="M 794 531 
L 1825 531 
L 1825 4091 
L 703 3866 
L 703 4441 
L 1819 4666 
L 2450 4666 
L 2450 531 
L 3481 531 
L 3481 0 
L 794 0 
L 794 531 
z
" transform="scale(0.015625)"/>
       </defs>
       <use xlink:href="#DejaVuSans-31"/>
       <use xlink:href="#DejaVuSans-30" x="63.623047"/>
      </g>
     </g>
    </g>
    <g id="text_7">
     <!-- Time t -->
     <g transform="translate(332.9575 342.506875) scale(0.16 -0.16)">
      <defs>
       <path id="DejaVuSans-54" d="M -19 4666 
L 3928 4666 
L 3928 4134 
L 2272 4134 
L 2272 0 
L 1638 0 
L 1638 4134 
L -19 4134 
L -19 4666 
z
" transform="scale(0.015625)"/>
       <path id="DejaVuSans-69" d="M 603 3500 
L 1178 3500 
L 1178 0 
L 603 0 
L 603 3500 
z
M 603 4863 
L 1178 4863 
L 1178 4134 
L 603 4134 
L 603 4863 
z
" transform="scale(0.015625)"/>
       <path id="DejaVuSans-6d" d="M 3328 2828 
Q 3544 3216 3844 3400 
Q 4144 3584 4550 3584 
Q 5097 3584 5394 3201 
Q 5691 2819 5691 2113 
L 5691 0 
L 5113 0 
L 5113 2094 
Q 5113 2597 4934 2840 
Q 4756 3084 4391 3084 
Q 3944 3084 3684 2787 
Q 3425 2491 3425 1978 
L 3425 0 
L 2847 0 
L 2847 2094 
Q 2847 2600 2669 2842 
Q 2491 3084 2119 3084 
Q 1678 3084 1418 2786 
Q 1159 2488 1159 1978 
L 1159 0 
L 581 0 
L 581 3500 
L 1159 3500 
L 1159 2956 
Q 1356 3278 1631 3431 
Q 1906 3584 2284 3584 
Q 2666 3584 2933 3390 
Q 3200 3197 3328 2828 
z
" transform="scale(0.015625)"/>
       <path id="DejaVuSans-65" d="M 3597 1894 
L 3597 1613 
L 953 1613 
Q 991 1019 1311 708 
Q 1631 397 2203 397 
Q 2534 397 2845 478 
Q 3156 559 3463 722 
L 3463 178 
Q 3153 47 2828 -22 
Q 2503 -91 2169 -91 
Q 1331 -91 842 396 
Q 353 884 353 1716 
Q 353 2575 817 3079 
Q 1281 3584 2069 3584 
Q 2775 3584 3186 3129 
Q 3597 2675 3597 1894 
z
M 3022 2063 
Q 3016 2534 2758 2815 
Q 2500 3097 2075 3097 
Q 1594 3097 1305 2825 
Q 1016 2553 972 2059 
L 3022 2063 
z
" transform="scale(0.015625)"/>
       <path id="DejaVuSans-20" transform="scale(0.015625)"/>
       <path id="DejaVuSans-74" d="M 1172 4494 
L 1172 3500 
L 2356 3500 
L 2356 3053 
L 1172 3053 
L 1172 1153 
Q 1172 725 1289 603 
Q 1406 481 1766 481 
L 2356 481 
L 2356 0 
L 1766 0 
Q 1100 0 847 248 
Q 594 497 594 1153 
L 594 3053 
L 172 3053 
L 172 3500 
L 594 3500 
L 594 4494 
L 1172 4494 
z
" transform="scale(0.015625)"/>
      </defs>
      <use xlink:href="#DejaVuSans-54"/>
      <use xlink:href="#DejaVuSans-69" x="57.958984"/>
      <use xlink:href="#DejaVuSans-6d" x="85.742188"/>
      <use xlink:href="#DejaVuSans-65" x="183.154297"/>
      <use xlink:href="#DejaVuSans-20" x="244.677734"/>
      <use xlink:href="#DejaVuSans-74" x="276.464844"/>
     </g>
    </g>
   </g>
   <g id="matplotlib.axis_2">
    <g id="ytick_1">
     <g id="line2d_7">
      <defs>
       <path id="mbc1eb09158" d="M 0 0 
L -3.5 0 
" style="stroke: #000000; stroke-width: 0.8"/>
      </defs>
      <g>
       <use xlink:href="#mbc1eb09158" x="83.54" y="292.587418" style="stroke: #000000; stroke-width: 0.8"/>
      </g>
     </g>
     <g id="text_8">
      <!-- −1.00 -->
      <g transform="translate(33.636563 297.906324) scale(0.14 -0.14)">
       <defs>
        <path id="DejaVuSans-2212" d="M 678 2272 
L 4684 2272 
L 4684 1741 
L 678 1741 
L 678 2272 
z
" transform="scale(0.015625)"/>
        <path id="DejaVuSans-2e" d="M 684 794 
L 1344 794 
L 1344 0 
L 684 0 
L 684 794 
z
" transform="scale(0.015625)"/>
       </defs>
       <use xlink:href="#DejaVuSans-2212"/>
       <use xlink:href="#DejaVuSans-31" x="83.789062"/>
       <use xlink:href="#DejaVuSans-2e" x="147.412109"/>
       <use xlink:href="#DejaVuSans-30" x="179.199219"/>
       <use xlink:href="#DejaVuSans-30" x="242.822266"/>
      </g>
     </g>
    </g>
    <g id="ytick_2">
     <g id="line2d_8">
      <g>
       <use xlink:href="#mbc1eb09158" x="83.54" y="259.555506" style="stroke: #000000; stroke-width: 0.8"/>
      </g>
     </g>
     <g id="text_9">
      <!-- −0.75 -->
      <g transform="translate(33.636563 264.874412) scale(0.14 -0.14)">
       <defs>
        <path id="DejaVuSans-37" d="M 525 4666 
L 3525 4666 
L 3525 4397 
L 1831 0 
L 1172 0 
L 2766 4134 
L 525 4134 
L 525 4666 
z
" transform="scale(0.015625)"/>
        <path id="DejaVuSans-35" d="M 691 4666 
L 3169 4666 
L 3169 4134 
L 1269 4134 
L 1269 2991 
Q 1406 3038 1543 3061 
Q 1681 3084 1819 3084 
Q 2600 3084 3056 2656 
Q 3513 2228 3513 1497 
Q 3513 744 3044 326 
Q 2575 -91 1722 -91 
Q 1428 -91 1123 -41 
Q 819 9 494 109 
L 494 744 
Q 775 591 1075 516 
Q 1375 441 1709 441 
Q 2250 441 2565 725 
Q 2881 1009 2881 1497 
Q 2881 1984 2565 2268 
Q 2250 2553 1709 2553 
Q 1456 2553 1204 2497 
Q 953 2441 691 2322 
L 691 4666 
z
" transform="scale(0.015625)"/>
       </defs>
       <use xlink:href="#DejaVuSans-2212"/>
       <use xlink:href="#DejaVuSans-30" x="83.789062"/>
       <use xlink:href="#DejaVuSans-2e" x="147.412109"/>
       <use xlink:href="#DejaVuSans-37" x="179.199219"/>
       <use xlink:href="#DejaVuSans-35" x="242.822266"/>
      </g>
     </g>
    </g>
    <g id="ytick_3">
     <g id="line2d_9">
      <g>
       <use xlink:href="#mbc1eb09158" x="83.54" y="226.523593" style="stroke: #000000; stroke-width: 0.8"/>
      </g>
     </g>
     <g id="text_10">
      <!-- −0.50 -->
      <g transform="translate(33.636563 231.8425) scale(0.14 -0.14)">
       <use xlink:href="#DejaVuSans-2212"/>
       <use xlink:href="#DejaVuSans-30" x="83.789062"/>
       <use xlink:href="#DejaVuSans-2e" x="147.412109"/>
       <use xlink:href="#DejaVuSans-35" x="179.199219"/>
       <use xlink:href="#DejaVuSans-30" x="242.822266"/>
      </g>
     </g>
    </g>
    <g id="ytick_4">
     <g id="line2d_10">
      <g>
       <use xlink:href="#mbc1eb09158" x="83.54" y="193.491681" style="stroke: #000000; stroke-width: 0.8"/>
      </g>
     </g>
     <g id="text_11">
      <!-- −0.25 -->
      <g transform="translate(33.636563 198.810587) scale(0.14 -0.14)">
       <use xlink:href="#DejaVuSans-2212"/>
       <use xlink:href="#DejaVuSans-30" x="83.789062"/>
       <use xlink:href="#DejaVuSans-2e" x="147.412109"/>
       <use xlink:href="#DejaVuSans-32" x="179.199219"/>
       <use xlink:href="#DejaVuSans-35" x="242.822266"/>
      </g>
     </g>
    </g>
    <g id="ytick_5">
     <g id="line2d_11">
      <g>
       <use xlink:href="#mbc1eb09158" x="83.54" y="160.459769" style="stroke: #000000; stroke-width: 0.8"/>
      </g>
     </g>
     <g id="text_12">
      <!-- 0.00 -->
      <g transform="translate(45.368125 165.778675) scale(0.14 -0.14)">
       <use xlink:href="#DejaVuSans-30"/>
       <use xlink:href="#DejaVuSans-2e" x="63.623047"/>
       <use xlink:href="#DejaVuSans-30" x="95.410156"/>
       <use xlink:href="#DejaVuSans-30" x="159.033203"/>
      </g>
     </g>
    </g>
    <g id="ytick_6">
     <g id="line2d_12">
      <g>
       <use xlink:href="#mbc1eb09158" x="83.54" y="127.427856" style="stroke: #000000; stroke-width: 0.8"/>
      </g>
     </g>
     <g id="text_13">
      <!-- 0.25 -->
      <g transform="translate(45.368125 132.746763) scale(0.14 -0.14)">
       <use xlink:href="#DejaVuSans-30"/>
       <use xlink:href="#DejaVuSans-2e" x="63.623047"/>
       <use xlink:href="#DejaVuSans-32" x="95.410156"/>
       <use xlink:href="#DejaVuSans-35" x="159.033203"/>
      </g>
     </g>
    </g>
    <g id="ytick_7">
     <g id="line2d_13">
      <g>
       <use xlink:href="#mbc1eb09158" x="83.54" y="94.395944" style="stroke: #000000; stroke-width: 0.8"/>
      </g>
     </g>
     <g id="text_14">
      <!-- 0.50 -->
      <g transform="translate(45.368125 99.71485) scale(0.14 -0.14)">
       <use xlink:href="#DejaVuSans-30"/>
       <use xlink:href="#DejaVuSans-2e" x="63.623047"/>
       <use xlink:href="#DejaVuSans-35" x="95.410156"/>
       <use xlink:href="#DejaVuSans-30" x="159.033203"/>
      </g>
     </g>
    </g>
    <g id="ytick_8">
     <g id="line2d_14">
      <g>
       <use xlink:href="#mbc1eb09158" x="83.54" y="61.364032" style="stroke: #000000; stroke-width: 0.8"/>
      </g>
     </g>
     <g id="text_15">
      <!-- 0.75 -->
      <g transform="translate(45.368125 66.682938) scale(0.14 -0.14)">
       <use xlink:href="#DejaVuSans-30"/>
       <use xlink:href="#DejaVuSans-2e" x="63.623047"/>
       <use xlink:href="#DejaVuSans-37" x="95.410156"/>
       <use xlink:href="#DejaVuSans-35" x="159.033203"/>
      </g>
     </g>
    </g>
    <g id="ytick_9">
     <g id="line2d_15">
      <g>
       <use xlink:href="#mbc1eb09158" x="83.54" y="28.33212" style="stroke: #000000; stroke-width: 0.8"/>
      </g>
     </g>
     <g id="text_16">
      <!-- 1.00 -->
      <g transform="translate(45.368125 33.651026) scale(0.14 -0.14)">
       <use xlink:href="#DejaVuSans-31"/>
       <use xlink:href="#DejaVuSans-2e" x="63.623047"/>
       <use xlink:href="#DejaVuSans-30" x="95.410156"/>
       <use xlink:href="#DejaVuSans-30" x="159.033203"/>
      </g>
     </g>
    </g>
    <g id="text_17">
     <!-- Amplitude(t) -->
     <g transform="translate(26.309062 210.835) rotate(-90) scale(0.16 -0.16)">
      <defs>
       <path id="DejaVuSans-41" d="M 2188 4044 
L 1331 1722 
L 3047 1722 
L 2188 4044 
z
M 1831 4666 
L 2547 4666 
L 4325 0 
L 3669 0 
L 3244 1197 
L 1141 1197 
L 716 0 
L 50 0 
L 1831 4666 
z
" transform="scale(0.015625)"/>
       <path id="DejaVuSans-70" d="M 1159 525 
L 1159 -1331 
L 581 -1331 
L 581 3500 
L 1159 3500 
L 1159 2969 
Q 1341 3281 1617 3432 
Q 1894 3584 2278 3584 
Q 2916 3584 3314 3078 
Q 3713 2572 3713 1747 
Q 3713 922 3314 415 
Q 2916 -91 2278 -91 
Q 1894 -91 1617 61 
Q 1341 213 1159 525 
z
M 3116 1747 
Q 3116 2381 2855 2742 
Q 2594 3103 2138 3103 
Q 1681 3103 1420 2742 
Q 1159 2381 1159 1747 
Q 1159 1113 1420 752 
Q 1681 391 2138 391 
Q 2594 391 2855 752 
Q 3116 1113 3116 1747 
z
" transform="scale(0.015625)"/>
       <path id="DejaVuSans-6c" d="M 603 4863 
L 1178 4863 
L 1178 0 
L 603 0 
L 603 4863 
z
" transform="scale(0.015625)"/>
       <path id="DejaVuSans-75" d="M 544 1381 
L 544 3500 
L 1119 3500 
L 1119 1403 
Q 1119 906 1312 657 
Q 1506 409 1894 409 
Q 2359 409 2629 706 
Q 2900 1003 2900 1516 
L 2900 3500 
L 3475 3500 
L 3475 0 
L 2900 0 
L 2900 538 
Q 2691 219 2414 64 
Q 2138 -91 1772 -91 
Q 1169 -91 856 284 
Q 544 659 544 1381 
z
M 1991 3584 
L 1991 3584 
z
" transform="scale(0.015625)"/>
       <path id="DejaVuSans-64" d="M 2906 2969 
L 2906 4863 
L 3481 4863 
L 3481 0 
L 2906 0 
L 2906 525 
Q 2725 213 2448 61 
Q 2172 -91 1784 -91 
Q 1150 -91 751 415 
Q 353 922 353 1747 
Q 353 2572 751 3078 
Q 1150 3584 1784 3584 
Q 2172 3584 2448 3432 
Q 2725 3281 2906 2969 
z
M 947 1747 
Q 947 1113 1208 752 
Q 1469 391 1925 391 
Q 2381 391 2643 752 
Q 2906 1113 2906 1747 
Q 2906 2381 2643 2742 
Q 2381 3103 1925 3103 
Q 1469 3103 1208 2742 
Q 947 2381 947 1747 
z
" transform="scale(0.015625)"/>
       <path id="DejaVuSans-28" d="M 1984 4856 
Q 1566 4138 1362 3434 
Q 1159 2731 1159 2009 
Q 1159 1288 1364 580 
Q 1569 -128 1984 -844 
L 1484 -844 
Q 1016 -109 783 600 
Q 550 1309 550 2009 
Q 550 2706 781 3412 
Q 1013 4119 1484 4856 
L 1984 4856 
z
" transform="scale(0.015625)"/>
       <path id="DejaVuSans-29" d="M 513 4856 
L 1013 4856 
Q 1481 4119 1714 3412 
Q 1947 2706 1947 2009 
Q 1947 1309 1714 600 
Q 1481 -109 1013 -844 
L 513 -844 
Q 928 -128 1133 580 
Q 1338 1288 1338 2009 
Q 1338 2731 1133 3434 
Q 928 4138 513 4856 
z
" transform="scale(0.015625)"/>
      </defs>
      <use xlink:href="#DejaVuSans-41"/>
      <use xlink:href="#DejaVuSans-6d" x="68.408203"/>
      <use xlink:href="#DejaVuSans-70" x="165.820312"/>
      <use xlink:href="#DejaVuSans-6c" x="229.296875"/>
      <use xlink:href="#DejaVuSans-69" x="257.080078"/>
      <use xlink:href="#DejaVuSans-74" x="284.863281"/>
      <use xlink:href="#DejaVuSans-75" x="324.072266"/>
      <use xlink:href="#DejaVuSans-64" x="387.451172"/>
      <use xlink:href="#DejaVuSans-65" x="450.927734"/>
      <use xlink:href="#DejaVuSans-28" x="512.451172"/>
      <use xlink:href="#DejaVuSans-74" x="551.464844"/>
      <use xlink:href="#DejaVuSans-29" x="590.673828"/>
     </g>
    </g>
   </g>
   <g id="line2d_16">
    <path d="M 108.51 160.459769 
L 116.008498 121.375475 
L 120.007698 101.74744 
L 123.007097 87.986501 
L 126.006496 75.270011 
L 128.505996 65.603508 
L 131.005495 56.886675 
L 133.005095 50.655958 
L 135.004695 45.129017 
L 137.004294 40.341276 
L 138.503994 37.254214 
L 140.003694 34.611447 
L 141.503393 32.422504 
L 143.003093 30.695281 
L 144.002893 29.803454 
L 145.002693 29.121068 
L 146.002492 28.649216 
L 147.002292 28.388656 
L 148.002092 28.339804 
L 149.001892 28.50274 
L 150.001692 28.877201 
L 151.001491 29.462588 
L 152.001291 30.257962 
L 153.001091 31.262049 
L 154.500791 33.155902 
L 156.00049 35.50883 
L 157.50019 38.312346 
L 158.99989 41.556341 
L 160.999489 46.546415 
L 162.999089 52.266605 
L 164.998689 58.680247 
L 167.498188 67.60944 
L 169.997688 77.468219 
L 172.997087 90.386238 
L 175.996486 104.314121 
L 179.495786 121.571216 
L 184.494785 147.459707 
L 194.992683 202.257273 
L 198.991882 221.711462 
L 201.991281 235.299054 
L 204.990681 247.8081 
L 207.49018 257.277827 
L 209.98968 265.778245 
L 211.989279 271.823138 
L 213.988879 277.154259 
L 215.988478 281.73744 
L 217.488178 284.666132 
L 218.987878 287.146921 
L 220.487578 289.170859 
L 221.987277 290.730649 
L 222.987077 291.509802 
L 223.986877 292.078882 
L 224.986677 292.436979 
L 225.986476 292.583517 
L 226.986276 292.518262 
L 227.986076 292.241319 
L 228.985876 291.75313 
L 229.985676 291.05448 
L 230.985475 290.146488 
L 232.485175 288.395258 
L 233.984875 286.182677 
L 235.484575 283.516723 
L 236.984274 280.40701 
L 238.483974 276.864753 
L 240.483574 271.491192 
L 242.483173 265.405987 
L 244.482773 258.64814 
L 246.982272 249.321304 
L 249.481772 239.104816 
L 252.481171 225.815272 
L 255.98047 209.134614 
L 259.97967 188.922363 
L 266.978268 152.119997 
L 272.977067 120.984274 
L 276.976266 101.380671 
L 279.975666 87.644261 
L 282.975065 74.957231 
L 285.474565 65.318742 
L 287.974064 56.632773 
L 289.973664 50.428594 
L 291.973263 44.929648 
L 293.972863 40.17118 
L 295.472563 37.106798 
L 296.972262 34.487243 
L 298.471962 32.321961 
L 299.971662 30.61876 
L 300.971461 29.743107 
L 301.971261 29.076991 
L 302.971061 28.621481 
L 303.970861 28.377306 
L 304.970661 28.344858 
L 305.97046 28.52419 
L 306.97026 28.915012 
L 307.97006 29.5167 
L 308.96986 30.328288 
L 309.96966 31.348476 
L 311.469359 33.266213 
L 312.969059 35.642627 
L 314.468759 38.469147 
L 315.968458 41.735581 
L 317.968058 46.754554 
L 319.967658 52.502308 
L 321.967257 58.942004 
L 324.466757 67.901386 
L 326.966256 77.787433 
L 329.965656 90.733931 
L 332.965055 104.685284 
L 336.964254 124.500956 
L 342.463153 153.142507 
L 351.461351 200.130721 
L 355.460551 219.722038 
L 358.45995 233.446135 
L 361.459349 246.118389 
L 363.958849 255.742836 
L 366.458348 264.413341 
L 368.457948 270.604229 
L 370.457548 276.089158 
L 372.457147 280.832972 
L 373.956847 283.886002 
L 375.456547 286.493942 
L 376.956246 288.647386 
L 378.455946 290.33857 
L 379.455746 291.206133 
L 380.455546 291.864111 
L 381.455345 292.311449 
L 382.455145 292.54743 
L 383.454945 292.571676 
L 384.454745 292.384147 
L 385.454545 291.985145 
L 386.454344 291.375309 
L 387.454144 290.555617 
L 388.453944 289.527382 
L 389.953644 287.59771 
L 391.453343 285.209561 
L 392.953043 282.37155 
L 394.452743 279.093908 
L 396.452342 274.060504 
L 398.451942 268.298989 
L 400.451542 261.846289 
L 402.951041 252.871844 
L 405.450541 242.9722 
L 408.44994 230.011508 
L 411.449339 216.048471 
L 415.448539 196.221409 
L 420.947437 167.572473 
L 429.945636 120.593453 
L 433.944835 101.014471 
L 436.944234 87.30272 
L 439.943634 74.645273 
L 442.443133 65.034891 
L 444.942633 56.37987 
L 446.942232 50.202288 
L 448.941832 44.73139 
L 450.941431 40.00224 
L 452.441131 36.960569 
L 453.940831 34.364251 
L 455.440531 32.22265 
L 456.94023 30.543488 
L 457.94003 29.684017 
L 458.93983 29.034178 
L 459.93963 28.595013 
L 460.939429 28.367227 
L 461.939229 28.351183 
L 462.939029 28.546908 
L 463.938829 28.954088 
L 464.938629 29.572071 
L 465.938428 30.399865 
L 467.438128 32.03196 
L 468.937828 34.127181 
L 470.437528 36.677974 
L 471.937227 39.675139 
L 473.436927 43.10787 
L 475.436527 48.340772 
L 477.436126 54.292289 
L 479.435726 60.924275 
L 481.935225 70.106017 
L 484.434725 80.192351 
L 487.434124 93.347252 
L 490.933423 109.902948 
L 494.932623 130.017678 
L 501.431321 164.128808 
L 507.93002 197.992814 
L 511.929219 217.715649 
L 515.428519 233.787324 
L 518.427918 246.429934 
L 520.927417 256.026229 
L 523.426917 264.665744 
L 525.426517 270.830005 
L 527.426116 276.286859 
L 529.425716 281.001333 
L 530.925415 284.031638 
L 532.425115 286.616328 
L 533.924815 288.746081 
L 535.424515 290.413217 
L 536.424314 291.264594 
L 537.424114 291.906292 
L 538.423914 292.337282 
L 539.423714 292.556874 
L 540.423514 292.564716 
L 541.423313 292.360794 
L 542.423113 291.945437 
L 543.422913 291.319309 
L 544.422713 290.483415 
L 545.922412 288.839283 
L 547.422112 286.732199 
L 548.921812 284.16976 
L 550.421512 281.161207 
L 551.921211 277.71739 
L 553.920811 272.47024 
L 555.92041 266.505171 
L 557.92001 259.860416 
L 560.41951 250.663937 
L 562.919009 240.564364 
L 565.918408 227.395737 
L 569.417708 210.827257 
L 573.416907 190.702472 
L 579.915606 156.585951 
L 586.414304 122.730346 
L 590.413504 103.019329 
L 593.912803 86.961884 
L 596.912202 74.33414 
L 599.411702 64.751957 
L 601.911201 56.127968 
L 603.910801 49.977043 
L 605.9104 44.534245 
L 607.91 39.834459 
L 607.91 39.834459 
" clip-path="url(#p7cc17b3a1f)" style="fill: none; stroke: #0000ff; stroke-width: 2; stroke-linecap: square"/>
   </g>
   <g id="line2d_17">
    <path d="M 108.51 160.459769 
L 111.509399 145.095118 
L 114.508799 130.854428 
L 117.008298 119.951995 
L 119.507798 110.002069 
L 122.007297 101.061381 
L 124.006897 94.665148 
L 126.006496 88.959154 
L 128.006096 83.954398 
L 130.005696 79.656765 
L 131.505395 76.898331 
L 133.005095 74.536903 
L 134.504795 72.569648 
L 136.004494 70.992331 
L 137.504194 69.799371 
L 139.003894 68.983898 
L 140.003694 68.646018 
L 141.003493 68.469655 
L 142.003293 68.451903 
L 143.003093 68.58965 
L 144.502793 69.080526 
L 146.002492 69.901789 
L 147.502192 71.040565 
L 149.001892 72.483164 
L 150.501592 74.215151 
L 152.501191 76.948445 
L 154.500791 80.131916 
L 156.50039 83.726646 
L 158.99989 88.737153 
L 161.499389 94.247181 
L 164.498789 101.403721 
L 167.998088 110.325072 
L 172.997087 123.718541 
L 182.495185 149.267048 
L 186.494384 159.342041 
L 189.993684 167.552329 
L 192.993083 174.038126 
L 195.992482 179.944073 
L 198.491982 184.383445 
L 200.991481 188.357886 
L 203.490981 191.848858 
L 205.490581 194.284864 
L 207.49018 196.399469 
L 209.48978 198.191172 
L 211.489379 199.660688 
L 213.488979 200.810851 
L 215.488579 201.646519 
L 217.488178 202.174457 
L 219.487778 202.40322 
L 221.487377 202.343021 
L 223.486977 202.005606 
L 225.486577 201.404106 
L 227.486176 200.552901 
L 229.485776 199.467475 
L 231.485375 198.164266 
L 233.984875 196.255337 
L 236.484374 194.068218 
L 239.483774 191.127592 
L 242.983073 187.342044 
L 246.982272 182.673108 
L 253.480971 174.67905 
L 260.979469 165.517167 
L 265.478569 160.374661 
L 268.977868 156.676782 
L 272.477167 153.305247 
L 275.476567 150.710063 
L 278.475966 148.411042 
L 281.475365 146.425084 
L 283.974865 145.017556 
L 286.474364 143.838954 
L 288.973864 142.890332 
L 291.473363 142.170302 
L 293.972863 141.675178 
L 296.472362 141.399115 
L 298.971862 141.334284 
L 301.471361 141.471046 
L 304.470761 141.885305 
L 307.47016 142.551439 
L 310.46956 143.444867 
L 313.968859 144.739 
L 317.968058 146.495356 
L 322.467157 148.742417 
L 328.465956 152.020025 
L 341.963253 159.498101 
L 346.962252 161.97038 
L 351.461351 163.943789 
L 355.460551 165.460081 
L 359.45975 166.729013 
L 362.959049 167.625116 
L 366.458348 168.31643 
L 369.957648 168.802907 
L 373.456947 169.08862 
L 377.456146 169.179529 
L 381.455345 169.035574 
L 385.454545 168.678592 
L 389.953644 168.054501 
L 394.952643 167.133038 
L 400.951441 165.792896 
L 409.94964 163.524856 
L 421.447337 160.65458 
L 427.946036 159.248514 
L 433.944835 158.173781 
L 439.443734 157.410342 
L 444.942633 156.874654 
L 450.441532 156.568996 
L 455.94043 156.484234 
L 461.939229 156.621253 
L 468.437928 156.999905 
L 475.936426 157.663968 
L 486.934224 158.890243 
L 503.930821 160.781307 
L 512.929019 161.540575 
L 520.927417 161.998092 
L 528.925816 162.234337 
L 537.424114 162.253514 
L 546.922212 162.035943 
L 558.91981 161.51434 
L 591.413303 159.965741 
L 603.410901 159.691423 
L 607.91 159.647002 
L 607.91 159.647002 
" clip-path="url(#p7cc17b3a1f)" style="fill: none; stroke: #ff0000; stroke-width: 2; stroke-linecap: square"/>
   </g>
   <g id="patch_3">
    <path d="M 83.54 305.8 
L 83.54 15.12 
" style="fill: none; stroke: #000000; stroke-width: 0.8; stroke-linejoin: miter; stroke-linecap: square"/>
   </g>
   <g id="patch_4">
    <path d="M 632.88 305.8 
L 632.88 15.12 
" style="fill: none; stroke: #000000; stroke-width: 0.8; stroke-linejoin: miter; stroke-linecap: square"/>
   </g>
   <g id="patch_5">
    <path d="M 83.54 305.8 
L 632.88 305.8 
" style="fill: none; stroke: #000000; stroke-width: 0.8; stroke-linejoin: miter; stroke-linecap: square"/>
   </g>
   <g id="patch_6">
    <path d="M 83.54 15.12 
L 632.88 15.12 
" style="fill: none; stroke: #000000; stroke-width: 0.8; stroke-linejoin: miter; stroke-linecap: square"/>
   </g>
   <g id="legend_1">
    <g id="patch_7">
     <path d="M 466.98 67.449375 
L 623.08 67.449375 
Q 625.88 67.449375 625.88 64.649375 
L 625.88 24.92 
Q 625.88 22.12 623.08 22.12 
L 466.98 22.12 
Q 464.18 22.12 464.18 24.92 
L 464.18 64.649375 
Q 464.18 67.449375 466.98 67.449375 
z
" style="fill: #ffffff; opacity: 0.8; stroke: #cccccc; stroke-linejoin: miter"/>
    </g>
    <g id="line2d_18">
     <path d="M 469.78 33.457812 
L 483.78 33.457812 
L 497.78 33.457812 
" style="fill: none; stroke: #0000ff; stroke-width: 2; stroke-linecap: square"/>
    </g>
    <g id="text_18">
     <!-- $x(t)$ -->
     <g transform="translate(508.98 38.357812) scale(0.14 -0.14)">
      <defs>
       <path id="DejaVuSans-Oblique-78" d="M 3841 3500 
L 2234 1784 
L 3219 0 
L 2559 0 
L 1819 1388 
L 531 0 
L -166 0 
L 1556 1844 
L 641 3500 
L 1300 3500 
L 1972 2234 
L 3144 3500 
L 3841 3500 
z
" transform="scale(0.015625)"/>
       <path id="DejaVuSans-Oblique-74" d="M 2706 3500 
L 2619 3053 
L 1472 3053 
L 1100 1153 
Q 1081 1047 1072 975 
Q 1063 903 1063 863 
Q 1063 663 1183 572 
Q 1303 481 1569 481 
L 2150 481 
L 2053 0 
L 1503 0 
Q 991 0 739 200 
Q 488 400 488 806 
Q 488 878 497 964 
Q 506 1050 525 1153 
L 897 3053 
L 409 3053 
L 500 3500 
L 978 3500 
L 1172 4494 
L 1747 4494 
L 1556 3500 
L 2706 3500 
z
" transform="scale(0.015625)"/>
      </defs>
      <use xlink:href="#DejaVuSans-Oblique-78" transform="translate(0 0.125)"/>
      <use xlink:href="#DejaVuSans-28" transform="translate(59.179688 0.125)"/>
      <use xlink:href="#DejaVuSans-Oblique-74" transform="translate(98.193359 0.125)"/>
      <use xlink:href="#DejaVuSans-29" transform="translate(137.402344 0.125)"/>
     </g>
    </g>
    <g id="line2d_19">
     <path d="M 469.78 54.009375 
L 483.78 54.009375 
L 497.78 54.009375 
" style="fill: none; stroke: #ff0000; stroke-width: 2; stroke-linecap: square"/>
    </g>
    <g id="text_19">
     <!-- $x(t) \times \exp{(-t/\tau)}$ -->
     <g transform="translate(508.98 58.909375) scale(0.14 -0.14)">
      <defs>
       <path id="DejaVuSans-d7" d="M 4488 3438 
L 3059 2003 
L 4488 575 
L 4116 197 
L 2681 1631 
L 1247 197 
L 878 575 
L 2303 2003 
L 878 3438 
L 1247 3816 
L 2681 2381 
L 4116 3816 
L 4488 3438 
z
" transform="scale(0.015625)"/>
       <path id="DejaVuSans-78" d="M 3513 3500 
L 2247 1797 
L 3578 0 
L 2900 0 
L 1881 1375 
L 863 0 
L 184 0 
L 1544 1831 
L 300 3500 
L 978 3500 
L 1906 2253 
L 2834 3500 
L 3513 3500 
z
" transform="scale(0.015625)"/>
       <path id="DejaVuSans-2f" d="M 1625 4666 
L 2156 4666 
L 531 -594 
L 0 -594 
L 1625 4666 
z
" transform="scale(0.015625)"/>
       <path id="DejaVuSans-Oblique-3c4" d="M 2103 638 
Q 2188 488 2525 488 
L 2800 488 
L 2706 0 
L 2363 0 
Q 1800 0 1600 300 
Q 1403 606 1534 1269 
L 1856 2925 
L 541 2925 
L 653 3500 
L 3881 3500 
L 3769 2925 
L 2444 2925 
L 2113 1234 
Q 2025 781 2103 638 
z
" transform="scale(0.015625)"/>
      </defs>
      <use xlink:href="#DejaVuSans-Oblique-78" transform="translate(0 0.125)"/>
      <use xlink:href="#DejaVuSans-28" transform="translate(59.179688 0.125)"/>
      <use xlink:href="#DejaVuSans-Oblique-74" transform="translate(98.193359 0.125)"/>
      <use xlink:href="#DejaVuSans-29" transform="translate(137.402344 0.125)"/>
      <use xlink:href="#DejaVuSans-d7" transform="translate(195.898438 0.125)"/>
      <use xlink:href="#DejaVuSans-65" transform="translate(299.169922 0.125)"/>
      <use xlink:href="#DejaVuSans-78" transform="translate(360.693359 0.125)"/>
      <use xlink:href="#DejaVuSans-70" transform="translate(419.873047 0.125)"/>
      <use xlink:href="#DejaVuSans-28" transform="translate(499.585286 0.125)"/>
      <use xlink:href="#DejaVuSans-2212" transform="translate(538.598958 0.125)"/>
      <use xlink:href="#DejaVuSans-Oblique-74" transform="translate(622.38802 0.125)"/>
      <use xlink:href="#DejaVuSans-2f" transform="translate(661.597004 0.125)"/>
      <use xlink:href="#DejaVuSans-Oblique-3c4" transform="translate(695.288411 0.125)"/>
      <use xlink:href="#DejaVuSans-29" transform="translate(755.493489 0.125)"/>
     </g>
    </g>
   </g>
  </g>
 </g>
 <defs>
  <clipPath id="p7cc17b3a1f">
   <rect x="83.54" y="15.12" width="549.34" height="290.68"/>
  </clipPath>
 </defs>
</svg>
